
<svg id="Layer_1" data-name="Layer 1" xmlns="http://www.w3.org/2000/svg" viewBox="0 0 50 50"><defs><style>.cls-1{fill:#fff;}.cls-1,.cls-2{stroke:#4c4c4d;stroke-linecap:round;stroke-miterlimit:10;}.cls-2{fill:none;}</style></defs><title>UFB_HandIcons</title><path class="cls-1" d="M44.32,14.08a9.58,9.58,0,0,0-15.79-1.45L24.4,9.36l-.57,15.79-6.2,7.24a2.7,2.7,0,1,0,4.1,3.51l4.38-5.14v.19l-6.2,7.24A2.7,2.7,0,0,0,20.17,42h0A2.7,2.7,0,0,0,24,41.7l2.11-2.47a2.7,2.7,0,0,0,.34,3.7h0a2.7,2.7,0,0,0,3.83-.28L43.18,27.53A11.38,11.38,0,0,0,44.32,14.08Z"/><circle class="cls-1" cx="17.91" cy="20.31" r="13.91"/><circle class="cls-1" cx="17.91" cy="20.31" r="11.74"/><path class="cls-2" d="M36.19,16.87a3.82,3.82,0,0,0-.57,4.95c1,1.52,3.37,3.27.76,6.66-1.9,2.47-1.8,4.26.76,5.9"/><line class="cls-1" x1="26.11" y1="39.23" x2="32.57" y2="31.71"/><line class="cls-2" x1="17.91" y1="10.9" x2="17.91" y2="12.61"/><line class="cls-2" x1="17.91" y1="28.02" x2="17.91" y2="29.73"/><line class="cls-2" x1="27.33" y1="20.31" x2="25.62" y2="20.31"/><line class="cls-2" x1="10.2" y1="20.31" x2="8.49" y2="20.31"/><path class="cls-2" d="M18.24,19.14h-.65l.23-4.07a.09.09,0,0,1,.09-.09h0a.09.09,0,0,1,.09.09Z"/><path class="cls-2" d="M17.92,20.77l.46-.46,6.31,6.64c.08.08.11.17.07.21h0s-.13,0-.21-.07Z"/><circle class="cls-1" cx="17.91" cy="20.31" r="1.14"/></svg>