<?xml version="1.0" encoding="utf-8"?>
<!-- Svg Vector Icons : http://www.onlinewebfonts.com/icon -->
<!DOCTYPE svg PUBLIC "-//W3C//DTD SVG 1.1//EN" "http://www.w3.org/Graphics/SVG/1.1/DTD/svg11.dtd">
<svg version="1.1" xmlns="http://www.w3.org/2000/svg" xmlns:xlink="http://www.w3.org/1999/xlink" x="0px" y="0px" viewBox="0 0 1000 1000" enable-background="new 0 0 1000 1000" xml:space="preserve">
<metadata> Svg Vector Icons : http://www.onlinewebfonts.com/icon </metadata>
<g><g><g><path d="M789.9,10c-95.8,0-173.7,77.9-173.7,173.7c0,95.8,77.9,173.7,173.7,173.7c95.8,0,173.7-77.9,173.7-173.7C963.6,87.9,885.7,10,789.9,10z M789.9,318.4c-74.3,0-134.7-60.4-134.7-134.7c0-74.3,60.4-134.7,134.7-134.7c74.3,0,134.7,60.4,134.7,134.7C924.6,258,864.2,318.4,789.9,318.4z"/><path d="M789.8,74.9c-9.8,0-17.7,7.9-17.7,17.7v73.3h-46.1c-9.8,0-17.7,7.9-17.7,17.7c0,9.8,7.9,17.7,17.7,17.7h63.8c9.8,0,17.7-7.9,17.7-17.7v-91C807.5,82.9,799.6,74.9,789.8,74.9z"/><path d="M180.2,192.8c10.6,18.4,23.8,35.6,40.4,49c13.1,10.6,28.5,18.8,45.3,21.5c0,0,24.1,4.1,46.5-7.4c12.7-6.5,25-18,32.2-31.7c7.8-14.8,10.6-31.9,10-48.5c-0.7-21-6.6-41.6-14.9-60.8c-7.3-16.8-16.4-33.5-30.2-46c-11.2-10.1-25.2-16.3-40.3-17.2c-18.3-1.1-36.4,5-52.6,13.1c-16.6,8.3-32.8,19.2-43.4,34.7c-8.6,12.5-12.4,27.4-11.2,42.5C163.5,160.2,171.2,177.2,180.2,192.8z"/><path d="M793.5,439.4c-5.9-10.4-19.2-14.1-29.7-8.1l-55,31.3l-7.2-12.6c-5.8-10.3-16.7-15.9-27.8-15.6c-1-3.5-2.4-7-4.3-10.3c-2.3-3.9-36.5-57.7-69-99.3c-59.9-76.7-180.2-77.8-193.8-77.8c-3.6,0-31.3,1.2-39.4,1.4c-2.2,0-4.3,0.1-6.4,0l180-64c1.1-0.4,2-1.3,2.3-2.5l9.6-37.2c0.3-1,0.1-2-0.5-2.8c-0.5-0.8-1.4-1.4-2.4-1.6l-50-8.7c-1-0.2-1.9,0.1-2.7,0.6L341.8,246.8c-2.2-0.4-3.7-0.8-4.4-1.1c-0.7-0.3-1.5-0.3-2.2,0.1c-0.7,0.4-1.1,1.1-1.2,1.9l-2.8,34.4l-0.3,2.4c-0.1,0.7-0.5,1.4-1.2,1.8l-5.9,3.4c-0.4,0.2-0.8,0.3-1.2,0.3c-0.5,0-1.1-0.2-1.5-0.5l-24.7-20.6c-0.6-0.5-1.3-0.7-2-0.5c-0.7,0.1-1.3,0.6-1.7,1.2c-0.1,0.3-13.9,26.6-41.5,57.6c-0.1,0.1-0.2,0.3-0.3,0.5c-35.5,39.6-93.5,86.9-175.6,100.8c-24.6,4.2-42.1,26-38.7,50.7c3,22.7,22.4,39.1,44.7,39.1c2,0,4-0.1,6.1-0.4c84.6-11.3,147.5-55,187.1-92.2l44.7,176.7c1.8,6.1,4.2,11.9,7.2,17.4l-97.2,119c-8.2,10-12.6,22.5-12.6,35.5v159.4c0,31,25.1,56.1,56.1,56.1c31,0,56.1-25.1,56.1-56.1V794.5L427.2,674c5.6-0.3,11.2-1,16.8-2.2l84,151.4c5.9,10.6,15.1,19,26.1,24l118.1,53c8.1,3.6,17,7.5,28.7,7.5c3.3,0,6.9-0.3,10.7-1.1c30.4-5.9,50.3-35.3,44.4-65.7c-3.7-19.3-17-34.4-34-41.3c-8.4-3.7-55.4-24.9-105.1-47.2L526,588.2c1.5-12,0.6-24.4-3-36.8l-53.3-205.7c23.1,6.6,46.3,17.5,59.7,34.6c28.7,36.7,61.5,88.1,62,89c1.9,3.3,4.1,6.2,6.6,8.8c-5.5,9.3-6,21.1-0.3,31.1l7.2,12.6l-55,31.3c-10.4,5.9-14.1,19.2-8.1,29.7L626,730.9c6,10.4,19.2,14.1,29.7,8.1l214-121.9c10.4-5.9,14.1-19.2,8.1-29.7L793.5,439.4z M628.8,508.2l-7.2-12.6c-0.9-1.5-0.4-3.4,1-4.4c2.6,0.5,5.2,0.7,7.8,0.7c7.7,0,15.5-2,22.6-6.1c9.4-5.4,16.1-13.8,19.6-23.2l0.3-0.2c1.6-0.9,3.8-0.4,4.7,1.3l7.2,12.6L628.8,508.2z"/></g></g><g></g><g></g><g></g><g></g><g></g><g></g><g></g><g></g><g></g><g></g><g></g><g></g><g></g><g></g><g></g></g>
</svg>